<svg
   xmlns="http://www.w3.org/2000/svg"
   viewBox="0 0 24 24"
   height="24"
   width="24">
  <path
    d="m 14.595583,0.19116473 c -0.386486,-0.0751871 -1.367891,0.68774755 -1.706912,1.91740217 0.435188,0.028479 0.756736,0.228923 0.833045,0.5192228 0.111255,0.4284992 -0.337258,0.9152925 -1.001439,1.0869122 -0.664024,0.1715607 -1.291876,-0.03697 -1.402013,-0.4656371 -0.04958,-0.1942791 0.01555,-0.4105029 0.182423,-0.6059702 -0.219301,0.1107775 -0.424383,0.233455 -0.611065,0.3699611 C 10.306375,2.0767651 8.7729302,1.3399378 8.269292,1.2716947 8.1848697,1.2602668 8.1306831,1.2664712 8.1136548,1.2946864 7.7671426,1.8698406 9.7552241,2.634113 10.341058,3.4978565 9.659287,4.2421032 9.3896327,5.1666496 9.6368638,5.9255484 c 0.1785893,0.5481843 0.7630902,0.9942334 1.4951422,1.2093867 0.2378,0.0699 0.174142,0.1919805 0,0.27938 -0.19953,0.1001443 -0.391934,0.2149841 -0.553665,0.3725088 C 8.858019,7.4551702 6.3328692,6.1276762 6.2026205,5.6066181 5.931928,4.5238027 5.6603338,3.704304 5.3466168,4.5618026 5.1113259,5.2049132 4.6636178,3.8643757 3.9956288,3.8295417 3.7729638,3.8179176 3.5269611,3.9513976 3.254433,4.3513125 2.6432368,5.2482114 3.5402462,6.4416811 4.9894124,6.5072797 6.3976631,6.5710311 8.8076332,8.9065895 9.64962,9.8267054 c 0.087323,0.095432 0.1980866,0.2960826 0.085473,0.3750596 -1.3456645,0.943654 -2.5693039,1.351633 -2.5693039,2.014362 0,0.794747 2.1962143,1.945316 2.0079839,2.217193 -0.1346895,0.194556 -1.8411773,-0.293825 -1.2974082,0.731 0.115311,0.217314 0.2679106,0.381839 0.4490536,0.491152 C 6.9345941,15.838734 5.2859834,15.085269 4.0964131,13.724035 3.7213829,13.292463 3.445818,12.549409 3.0643539,12.716204 c -0.3814504,0.166807 0.046309,4.336528 4.0976083,6.835309 0.590464,0.364182 1.1948543,0.630578 1.7936664,0.803699 0.046309,0.975657 0.1587652,1.211791 -0.4579826,1.525774 -0.8133908,0.414075 -2.0852802,1.43635 -1.2718957,1.687774 0.8133844,0.2514 2.5742092,0.457837 3.0770397,0.08802 0.502815,-0.369725 0.605722,-1.049361 0.08802,-1.759222 -0.233149,-0.319734 -0.241901,-0.839418 -0.183705,-1.315266 0.938637,0.07074 1.832432,-0.09308 2.606301,-0.469461 0.612849,1.192331 0.556722,1.674262 0.519216,1.886792 -0.04429,0.2514 0.130564,0.500237 1.051198,0.562587 0.91691,0.06211 1.625899,0.0149 2.221027,-0.0039 0.576774,-0.01783 1.449414,-0.857564 0.547284,-1.301239 -0.902117,-0.443661 -1.378024,0.195193 -1.747735,-0.204106 -0.335809,-0.362661 -1.116978,-1.008125 -1.313994,-1.87659 0.388571,-0.411771 0.709754,-0.907458 0.937649,-1.48493 0.180158,-0.456488 0.291249,-0.949994 0.339342,-1.467077 0.435906,-0.01379 0.751412,-0.364625 0.728439,-0.640425 -0.0418,-0.501954 -0.409066,-0.333773 -0.501358,-0.692707 C 15.406237,14.15923 16.983,12.737042 16.785997,12.362757 16.629943,12.06628 15.506153,11.3149 14.798425,10.025653 14.691797,9.8313918 14.566877,9.5430485 14.707852,9.3763028 15.684797,8.2210678 18.605649,6.604664 19.412705,6.6602938 19.979696,6.6993582 20.30428,6.5966095 20.739454,6.2546192 21.892076,5.3487974 20.818362,4.169854 20.257234,4.4354393 19.913718,4.598032 19.695632,4.776138 19.48032,4.6727285 19.308303,4.5900772 19.497235,4.1472669 19.221346,4.096098 19.049987,4.0643538 18.704482,4.8486727 18.500569,5.6486546 18.259425,6.594651 14.909219,7.5085783 13.335181,7.5354414 13.218028,7.467797 13.092665,7.4137781 12.965218,7.3670499 c -0.159745,-0.058583 -0.203285,-0.1712227 0,-0.2347365 C 13.429743,6.9871457 13.973865,6.754702 14.325133,6.4701887 15.240783,5.7285298 15.871445,5.1135189 16.136657,4.2925315 16.228089,4.0094809 16.334194,3.83869 16.104788,3.5350055 15.890595,3.2514987 15.047536,3.6225964 14.258816,4.1065277 13.470083,4.5904678 12.972231,5.1542236 11.814535,4.7494948 11.264351,4.5571494 11.008289,3.988782 11.752027,4.3563201 12.73485,4.8420161 13.404028,4.1532752 14.276674,3.6406429 15.149333,3.1280034 16.345775,2.7951288 16.427062,3.2366388 16.536053,3.8286049 16.869754,3.8767771 16.676305,2.9964031 16.59133,2.609721 16.090759,2.1287604 14.16186,2.1340183 c -0.226609,6.131e-4 -0.486434,0.013384 -0.753953,0.028086 0.416728,-1.113379 1.482936,-1.56365968 1.315273,-1.87913374 -0.02639,-0.0497728 -0.06966,-0.0806082 -0.127583,-0.0918496 z M 12.881015,2.2233871 c -0.08877,-6.131e-4 -0.179876,0.012874 -0.267897,0.039518 -0.363462,0.1091372 -0.59305,0.4141076 -0.512841,0.6812342 0.08049,0.2670223 0.440274,0.3949453 0.803704,0.2857618 0.363463,-0.1091385 0.593052,-0.414109 0.512843,-0.6812356 C 13.35863,2.3541132 13.147521,2.2259609 12.881015,2.2233614 Z m 1.461982,9.2579009 c 0.476061,0.278559 0.804606,0.667792 0.748844,0.901927 -0.02541,0.106762 -0.110051,0.341927 -0.209217,0.636587 -0.181234,-0.469044 -0.468458,-0.895196 -0.678687,-1.365012 -0.03024,-0.06756 0.07473,-0.211145 0.13906,-0.173502 z m -3.867987,0.463084 c 0.160137,0.704393 0.145722,1.379015 -0.03952,1.960779 C 10.044722,13.212334 9.0441195,12.635192 9.2159095,12.40363 9.4331142,12.110836 9.9954606,11.995454 10.475043,11.944372 Z"/>
</svg>
