<?xml version="1.0" encoding="UTF-8" standalone="no"?>
<svg
   xmlns:dc="http://purl.org/dc/elements/1.1/"
   xmlns:cc="http://creativecommons.org/ns#"
   xmlns:rdf="http://www.w3.org/1999/02/22-rdf-syntax-ns#"
   xmlns:svg="http://www.w3.org/2000/svg"
   xmlns="http://www.w3.org/2000/svg"
   width="155"
   height="200"
   viewBox="0 0 155 200.00001"
   id="svg4166"
   version="1.1">
  <defs
     id="defs4168" />
  <metadata
     id="metadata4171">
    <rdf:RDF>
      <cc:Work
         rdf:about="">
        <dc:format>image/svg+xml</dc:format>
        <dc:type
           rdf:resource="http://purl.org/dc/dcmitype/StillImage" />
        <dc:title></dc:title>
      </cc:Work>
    </rdf:RDF>
  </metadata>
  <path
     id="path4151-2-3-7"
     d="M 97.530589,3.34625 C 94.378588,2.73306 86.374705,8.9552 83.609805,18.98369 c 3.549185,0.23226 6.171582,1.86699 6.793928,4.23454 0.907339,3.49464 -2.750515,7.4647 -8.167266,8.86435 -5.415472,1.39917 -10.535939,-0.30151 -11.43417,-3.79752 -0.404314,-1.58445 0.126786,-3.34787 1.487765,-4.94201 -1.788521,0.90345 -3.461073,1.90395 -4.983569,3.01723 -4.756687,-7.63595 -17.26275,-13.64517 -21.370189,-14.20173 -0.688509,-0.0932 -1.13043,-0.0426 -1.269305,0.18751 -2.825992,4.69069 13.387876,10.92374 18.165664,17.96803 -5.560207,6.06973 -7.759381,13.6099 -5.74308,19.79912 1.456491,4.47074 6.223411,8.10851 12.193686,9.8632 1.939381,0.57009 1.420218,1.5657 0,2.27849 -1.627275,0.81673 -3.196432,1.75331 -4.515433,3.03801 C 50.737687,62.5881 30.14374,51.76168 29.081492,47.51217 26.87385,38.68123 24.658854,31.99778 22.100325,38.99114 c -1.918923,5.24491 -5.570222,-5.68789 -11.01803,-5.97198 -1.8159518,-0.0948 -3.8222353,0.9938 -6.0448487,4.25532 -4.98463128,7.31469 2.3309603,17.04807 14.1496847,17.58306 11.485039,0.51991 31.139633,19.56766 38.006485,27.0717 0.71216,0.7783 1.615503,2.4147 0.697083,3.0588 -10.974613,7.696 -20.954047,11.0233 -20.954047,16.4282 0,6.4816 17.911303,15.8651 16.376183,18.0824 -1.098469,1.5867 -15.01579,-2.3963 -10.581062,5.9617 0.94042,1.7723 2.184954,3.1141 3.662273,4.0056 -11.342918,1.4946 -24.788219,-4.6503 -34.489801,-15.7519 -3.0585719,-3.5197 -5.305951,-9.5797 -8.4169947,-8.2194 -3.11093223,1.3604 0.3776823,35.3667 33.4181867,55.7456 4.81555,2.9701 9.744676,5.1427 14.628308,6.5546 0.377676,7.957 1.294816,9.8828 -3.735092,12.4435 -6.633638,3.377 -17.006575,11.7142 -10.37299,13.7647 6.633585,2.0503 20.994053,3.7339 25.0949,0.7179 4.100731,-3.0153 4.939988,-8.5581 0.717858,-14.3474 -1.901452,-2.6076 -1.972832,-6.8459 -1.498206,-10.7267 7.655081,0.577 14.944463,-0.7591 21.255771,-3.8287 4.998106,9.7241 4.540364,13.6545 4.23449,15.3878 -0.361168,2.0503 1.064854,4.0797 8.573072,4.5882 7.477902,0.5066 13.260082,0.1215 18.113672,-0.032 4.7039,-0.1454 11.82074,-6.9939 4.46339,-10.6123 -7.35725,-3.6183 -11.23852,1.5919 -14.25372,-1.6646 -2.73869,-2.9577 -9.109547,-8.2218 -10.716311,-15.3046 3.168997,-3.3582 5.788413,-7.4008 7.647031,-12.1104 1.46928,-3.7229 2.37528,-7.7477 2.76751,-11.9648 3.55504,-0.1124 6.12816,-2.9737 5.94081,-5.223 -0.34092,-4.0937 -3.33615,-2.7221 -4.08885,-5.6494 -1.53517,-5.9699 11.32417,-17.5686 9.71751,-20.6211 -1.27271,-2.418 -10.43782,-8.5459 -16.209718,-19.0604 -0.869569,-1.5843 -1.8884,-3.9359 -0.738686,-5.2958 7.967504,-9.42156 31.788614,-22.60419 38.370584,-22.1505 4.62411,0.31856 7.27127,-0.51937 10.82035,-3.3085 9.40024,-7.38746 0.64349,-17.00237 -3.93277,-14.83638 -2.80155,1.32603 -4.58016,2.77858 -6.33614,1.93522 -1.40289,-0.67407 0.13798,-4.28542 -2.11207,-4.70273 -1.39753,-0.25889 -4.21531,6.13765 -5.87833,12.66193 -1.96666,7.71511 -29.28938,15.16867 -42.126506,15.38776 -0.955439,-0.55171 -1.977838,-0.99219 -3.017234,-1.37333 -1.302809,-0.47783 -1.657903,-1.39641 0,-1.9144 3.788467,-1.1837 8.226077,-3.0794 11.090849,-5.39976 7.467621,-6.04863 12.611001,-11.06437 14.773951,-17.75996 0.74572,-2.30843 1.61102,-3.70132 -0.25996,-6.17803 -1.74681,-2.31215 -8.6224,0.71435 -15.054834,4.66107 -6.432548,3.94679 -10.492792,8.54452 -19.934423,5.24374 -4.487041,-1.56868 -6.575362,-6.20402 -0.509785,-3.20655 8.015445,3.96111 13.472948,-1.65594 20.589845,-5.83673 7.117007,-4.18085 16.874627,-6.89562 17.537567,-3.29487 0.8889,4.8278 3.61039,5.22067 2.03271,-1.95925 -0.69298,-3.1536 -4.77545,-7.07609 -20.506649,-7.03321 -1.848123,0.005 -3.967126,0.1092 -6.148882,0.22906 C 91.243096,10.34012 99.938581,6.66784 98.571211,4.09498 98.356002,3.68906 98.003144,3.43758 97.530754,3.3459 Z M 83.547375,19.92011 c -0.724038,-0.005 -1.466985,0.10495 -2.184843,0.32229 -2.964228,0.89007 -4.836648,3.37727 -4.182499,5.55583 0.656437,2.17771 3.590676,3.22099 6.554639,2.33054 2.964228,-0.89008 4.836648,-3.37728 4.1825,-5.55584 C 87.44254,20.98625 85.720873,19.9411 83.547375,19.9199 Z m 11.923239,75.50313 c 3.882535,2.2718 6.561986,5.4462 6.107226,7.3557 -0.20722,0.8707 -0.89753,2.7886 -1.706273,5.1917 -1.478064,-3.8253 -3.820533,-7.3008 -5.535063,-11.1324 -0.246635,-0.551 0.609512,-1.722 1.13411,-1.415 z m -31.545498,3.7767 c 1.306002,5.7447 1.188436,11.2466 -0.322282,15.9912 -3.186949,-5.6503 -11.347399,-10.3572 -9.94636,-12.2457 1.77142,-2.3879 6.357656,-3.3289 10.268907,-3.7455 z"
     style="fill:#000000;fill-opacity:1;stroke:none;stroke-width:0.58686423;stroke-miterlimit:4;stroke-dasharray:none;stroke-opacity:1" />
</svg>
