<svg
  xmlns="http://www.w3.org/2000/svg"
  width="24"
  height="24"
  viewBox="0 0 24 24">
  <path
    d="m 17.652061,2.6607091 c -1.004917,-0.1951361 -3.55647,1.7881368 -4.437915,4.9852006 1.131472,0.074023 1.968846,0.5948125 2.165889,1.3499486 C 15.670654,10.109578 14.503184,11.37562 12.776329,11.821809 11.049895,12.267872 9.4169226,11.725819 9.1311406,10.611143 9.0016742,10.106199 9.1715606,9.5438723 9.6054368,9.0356443 9.0352604,9.3236783 8.5020548,9.6426353 8.016686,9.9975533 6.5002648,7.5632136 2.5133632,5.6474619 1.2039172,5.470051 0.98442562,5.4404026 0.84348478,5.4563426 0.79926561,5.5298256 -0.10170828,7.0251784 5.0672908,9.0123093 6.590439,11.258016 c -1.7725816,1.935007 -2.4736786,4.338806 -1.8308811,6.311908 0.464321,1.425251 1.960249,2.673312 3.8873198,3.144368 1.1471941,0.280414 3.2430643,0.370793 4.7662823,-0.007 1.228148,-0.304516 2.622461,-0.981707 3.535739,-1.721445 2.380667,-1.92828 4.020358,-3.527275 4.709902,-5.661817 0.237735,-0.735945 0.513606,-1.179997 -0.08287,-1.969565 -0.556863,-0.737092 -2.748802,0.22775 -4.799447,1.485949 -2.050683,1.258231 -3.345081,2.723968 -6.355051,1.671713 -1.4304602,-0.500098 -2.0962074,-1.977854 -0.162519,-1.022257 2.555309,1.262789 4.295146,-0.527899 6.563998,-1.860728 2.268886,-1.332862 5.379587,-2.1983017 5.590938,-1.050407 0.283372,1.539091 1.15099,1.664348 0.648022,-0.6245877 -0.220913,-1.005361 -1.522402,-2.2558462 -6.537474,-2.2422014 -0.589178,0 -1.264711,0.03481 -1.96025,0.073039 1.083478,-2.8947004 3.85758,-4.0664737 3.419665,-4.8856245 -0.08188,-0.1531824 -0.21512,-0.2160493 -0.331748,-0.2387158 z" />
  <path
    d="m 12.49772,8.0471803 c -0.948412,0.272094 -1.542284,1.076771 -1.333371,1.771177 0.208899,0.6943727 1.14468,1.0267837 2.089605,0.7429897 0.944969,-0.283825 1.541609,-1.0765797 1.333371,-1.7712087 -0.151615,-0.50574 -0.683779,-0.8356642 -1.376664,-0.8442719 -0.253955,-0.00314 -0.507887,0.042492 -0.712941,0.1013128 z" />
</svg>
